/* XPM */
static char *explosion_xpm[] = {
/* columns rows colors chars-per-pixel */
"64 64 64 1",
"  c Gray0",
". c #050000",
"X c #0b0000",
"o c #130000",
"O c #1b0000",
"+ c #240000",
"@ c #2c0000",
"# c #370000",
"$ c #440000",
"% c #560000",
"& c #650000",
"* c #700000",
"= c #7c0000",
"- c #860000",
"; c #940000",
": c #ab0000",
"> c #b80000",
", c #c40000",
"< c #ce0000",
"1 c #db0000",
"2 c #d40000",
"3 c #ea0000",
"4 c #e40000",
"5 c #f40000",
"6 c Red",
"7 c #fb0200",
"8 c #ff0b00",
"9 c #ff1400",
"0 c #ff2500",
"q c #ff3500",
"w c #ff4900",
"e c #ff4100",
"r c #ff5700",
"t c #ff6500",
"y c #ff7400",
"u c None",
"i c #ff8f00",
"p c #ffa900",
"a c #ffb800",
"s c #ffc500",
"d c #ffce00",
"f c #ffd900",
"g c #ffeb00",
"h c #ffe400",
"j c #fff500",
"k c Yellow",
"l c #fffa01",
"z c #ffff0a",
"x c #ffff16",
"c c #ffff2f",
"v c #ffff24",
"b c #ffff3d",
"n c #ffff4d",
"m c #ffff60",
"M c #ffff76",
"N c #ffff8c",
"B c #ffffa1",
"V c #ffffb4",
"C c #ffffc4",
"Z c #ffffd7",
"A c #ffffeb",
"S c #fffff6",
"D c Gray100",
"F c #fffffb",
/* pixels */
"uuuuuuuuuuuuuuuu    uuuuuuuuuuuuuuuuuuuuuuuuuuuuuuuuuuuuuuuuuuuu",
"uuuuuuuuuuuuuuuu     uuuuuuuuuuuuuuuuuuuuuuuuuuuuuuuuuuuuuuuuuuu",
"uuuuuuuuuuuuuuuu     uuuuuuuuuuuuuuuuuuuuuuuuuuuuuuuuuuuuuuuuuuu",
"uuuuuuuuuuuuuuuu      uuuuuuuuuuuuuuuuu   uuuuuuuuuuuuuuuuuuuuuu",
"uuuuuuuuuuuuuuuuu    .. uuuuuuuuuuuuuu     uuuuuuuuuuuuuuuuuuu  ",
"uuuuuuuuuuuuuuuuu  .oOX. uuuuuuuuuuuu...   uuuuuuuuuuuuuuuu     ",
"uuuuuuuuuuuuuuuuu  X+$$@X. uuuuuuuuuXO++o  uuuuuuuuuuuuuuu      ",
"uuuuuuuuuuuuuuuuuu o$;:-$OX. uuuuu X#=:;$o uuuuuuuuuuuuu        ",
"uuuuuuuuuuuuuuuuuu X%,34,=#o.     X+*253>#X uuuuuuuuu           ",
"uuuuuuuuuuuuuuuuuu .$<7774,%+X...XO&27773;+Xuuuuuuu .         uu",
"uuuuuuuuuuuuuuuuuu X$177777<;%$$$%;1777771*+Xuuuuu.XXX.     uuuu",
"uuuuuuuu     uuuu  .#4777777541124377777772*+X   Xo+@@X    uuuuu",
"uuuuuuuu           X%4777777777777777766777<&O. .+%==%O. uuuuuuu",
"uuuuuuuu     ..    O-57777777777777760q087771*+O#*::-$o.uuuuuuuu",
"uuuuuuuuu   .oOOoXo%<777788777777776epdpw87772>;,1<:%+Xuuuuuuuuu",
"uuuuuuuuuu  X@%&%$*27776qyyq9666779wsjllsw877775551*+Xuuuuuuuuuu",
"uuuuuuuuuuu X@=<<237778wsggsiqq0qwyflkkklsw8777777,$X uuuuuuuuuu",
"uuuuuuuuuuu .+;4777778wdlkkljhdffhgkkkkkkjsq677773-o uuuuuuuuuuu",
"uuuuuuuuuuu X#:577778wslkkkkkkkklkkkkkkkkkgy877772%X uuuuuuuuuuu",
"uuuuuuuuuuu.+&177778eslkkkkkkkkkkkkkkkkkkkjy87775>+. uuuuuuuuuuu",
"uuuu  uuu X+*<77778esjkkkzzkkkkkkkkkkkkkkkgr67775=o uuuuuuuuuuuu",
"uuu      X+*177778wsjkkzcMMcxkkkkkzxzkkkkkfq77771$X uuuuuuuuuuuu",
"uuu   ..X+*<77760tfjkkznVAACNncccnnnczkkkjp97777:+. uuuuuuuuuuuu",
"uuu  .o+$;17778qphlkkznZFDDDSZZZZZZCnzkkkji87775-O  uuuuuuuuuuuu",
"uuu  X@&<37776qsjkkkkbCSDDDDDDDDDDDANxkkkji97777:@. uuuuuuuuuuuu",
"uuuu.X#;477778tgkkkkvVFDDDDDDDDDDDDFZnzkkldr87772*OXuuuuuuuuuuuu",
"uuuuuXO&277778ygkkkkbCFDDDDDDDDDDDDDSCnzkkjsw87752=+Xuuuuuuuuuuu",
"uuuuuuX#=27776qajkkkvVSDDDDDDDDDDDDDDFCnzkklsw87752-#Xuuuuuuuuuu",
"uuuuuuuX@=<5778qslkkzbCSDDDDDDDDDDDDDDSZnzkkldw87771=@. uuuuuuuu",
"uuuuuuuu.O&17778edkkkzbZFDDDDDDDDDDDDDDSBvkkkjp077772%o   uuuuuu",
"uuuuuuuu .+;57779yjkkkxNADDDDDDDDDDDDDDDZbkkkkdq67775;+.    uuuu",
"uuuuuuuu  o&37776rhkkkzmADDDDDDDDDDDDDDSBvkkkjp077773;+.     uuu",
"uuuuuuuu  o=37778ygkkkzMADDDDDDDDDDDDDSZnzkkldw87773>$o       uu",
"uuuuuuuu X#,77770alkkkvVSDDDDDDDDDDDDSCbzkkjsw87771-#o.      uuu",
"uuuuuuu .+-37778thkkkzmADDDDDDDDDDDDSCnkkklse87752*@X. uuuuuuuuu",
"uuuuuu.X+*17778rdlkkznZFDDDDDDDDDDDFZnzkkldw87772%O. uuuuuuuuuuu",
"uuuuuu.O=27776eslkkznCFDDDDDDDDDDDDAMzkkkgt87773=+. uuuuuuuuuuuu",
"uuuuu X$,77770plkkkcBSDDDDDDDDDDDDSVxkkkls07777<$.  uuuuuuuuuuuu",
"uuuu .O=37777edkkkkbCSFFAASDDDDDDDAmzkkkldq7777<$X  uuuuuuuuuuuu",
"uuuu  o-477770pjkkkxmCCBMmMCSDDDDSBxkkkkkfr87774%O. uuuuuuuuuuuu",
"uuuuu X#:37778eslkkkxvvxzzxnCFDDSCckkkkkkjp077772*+X.uuuuuuuuuuu",
"uuuuuu.o#;25778wdjkkkkkkkkkkbCAAVnzkkkkkkldq67775<=@O. uuuuuuuuu",
"uuuuuuu X+&27778esjkkkkkkkkkzcmMczkkkkkkkjp0777773,=#o. uuuuuuuu",
"uuuuuuuu .O*27778wdlkkkkkkkkkzzzkkkkkkkklsw877751,:=%+X.  uuuuuu",
"uuuuuuuuu .+;37779rflkkljhglkkkkkkkkkkklsw87771;&$$##OX    uuuuu",
"uuuuuuuuuu X#,77769tafsiyrisjkkkklfdhggsw87752&OX.XXXX.    uuuuu",
"uuuuuuuuuuu o*3777780009889wsjkkjstqwtt087771%O.    .      uuuuu",
"uuuuuuuuuuu .#>7777777777778esggsw8668967775;+.  uuu      uuuuuu",
"uuuuuuuuuuuu O=37777777777776qytq67777777774%X  uuuuuuuuuuuuuuuu",
"uuuuuuuuuuuu .%47777777777777688677777777771$X uuuuuuuuuuuuuuuuu",
"uuuuuuuuuuuu X$1777777775357777777777777775,#. uuuuuuuuuuuuuuuuu",
"uuuuuuuuuuuu X&1777544<;=&;2777777424333<2,-@X uuuuuuuuuuuuuuuuu",
"uuuuuuuuuuuu O;4771:%$#+ooO%277772=$%--*$$$@o  uuuuuuuuuuuuuuuuu",
"uuuuuuuuuuu X+;13<*+X.    .O&1552*OXXoOXX.XX.   uuuuuuuuuuuuuuuu",
"uuuuuuuuuuu X@->:&+.       .+*>,&O.   .         uuuuuuuuuuuuuuuu",
"uuuuuuuuuu   O#$#OX uuuuuuu .O$#+X    uuuu      uuuuuuuuuuuuuuuu",
"uuuuuuuuuu   .oXX.uuuuuuuuuu ..X.  uuuuuuuuu     uuuuuuuuuuuuuuu",
"uuuuuuuuu        uuuuuuuuuuu      uuuuuuuuuuu    uuuuuuuuuuuuuuu",
"uuuuuuuuu      uuuuuuuuuuuuuu    uuuuuuuuuuuuu  uuuuuuuuuuuuuuuu",
"uuuuuuuuu    uuuuuuuuuuuuuuuu    uuuuuuuuuuuuuuuuuuuuuuuuuuuuuuu",
"uuuuuuuuuuuuuuuuuuuuuuuuuuuuu    uuuuuuuuuuuuuuuuuuuuuuuuuuuuuuu",
"uuuuuuuuuuuuuuuuuuuuuuuuuuuuuu   uuuuuuuuuuuuuuuuuuuuuuuuuuuuuuu",
"uuuuuuuuuuuuuuuuuuuuuuuuuuuuuu   uuuuuuuuuuuuuuuuuuuuuuuuuuuuuuu",
"uuuuuuuuuuuuuuuuuuuuuuuuuuuuuu   uuuuuuuuuuuuuuuuuuuuuuuuuuuuuuu"
};
