/* XPM */
static char * tumbler_xpm[] = {
"46 62 693 2",
"  	c None",
". 	c #D6A871",
"+ 	c #8B7559",
"@ 	c #533C20",
"# 	c #7A6134",
"$ 	c #82712D",
"% 	c #D6BA47",
"& 	c #C1A530",
"* 	c #FCDE4D",
"= 	c #C1A72F",
"- 	c #EED54F",
"; 	c #C4A936",
"> 	c #B7A034",
", 	c #D6BE3F",
"' 	c #E2C749",
") 	c #755928",
"! 	c #D3B05F",
"~ 	c #B09A32",
"{ 	c #F8DB40",
"] 	c #FADC3C",
"^ 	c #FEE13E",
"/ 	c #FEE349",
"( 	c #DCC161",
"_ 	c #745B2A",
": 	c #E4C53A",
"< 	c #F8DB3C",
"[ 	c #FDE03E",
"} 	c #FEE44A",
"| 	c #A19050",
"1 	c #AC8C31",
"2 	c #F1D23B",
"3 	c #FEE654",
"4 	c #7B6D32",
"5 	c #553915",
"6 	c #FBDD3E",
"7 	c #FDE861",
"8 	c #C9AA31",
"9 	c #FCE663",
"0 	c #826B1E",
"a 	c #FBE661",
"b 	c #FBDE3D",
"c 	c #FCE65B",
"d 	c #63511D",
"e 	c #F9DB3D",
"f 	c #FADD3D",
"g 	c #EED138",
"h 	c #FEE44E",
"i 	c #DBC17A",
"j 	c #C4A24B",
"k 	c #EFD03C",
"l 	c #F6DA3E",
"m 	c #E2C953",
"n 	c #F7E996",
"o 	c #FCF5B2",
"p 	c #FEF39E",
"q 	c #FAE461",
"r 	c #FADE42",
"s 	c #F9E04A",
"t 	c #E7D14E",
"u 	c #EEE086",
"v 	c #FFF2A3",
"w 	c #F6E9A2",
"x 	c #E3CA7C",
"y 	c #9D8031",
"z 	c #8D7A2A",
"A 	c #B49836",
"B 	c #D3B440",
"C 	c #FCDF49",
"D 	c #EBCF57",
"E 	c #FCF2D7",
"F 	c #FDFDF4",
"G 	c #FFFEF9",
"H 	c #FFFDF6",
"I 	c #FEFBE3",
"J 	c #EEE298",
"K 	c #C8BE6F",
"L 	c #F8F5D0",
"M 	c #FCFFF0",
"N 	c #FBFFF9",
"O 	c #FAFEF8",
"P 	c #F7F2EC",
"Q 	c #5B4947",
"R 	c #927D27",
"S 	c #B39630",
"T 	c #8F6F24",
"U 	c #EFD040",
"V 	c #96833F",
"W 	c #E3C35F",
"X 	c #E7D295",
"Y 	c #FFF9F9",
"Z 	c #FAFDFE",
"` 	c #FFFFFE",
" .	c #FEFEFF",
"..	c #FCFEFE",
"+.	c #F3F5F3",
"@.	c #C1BDBE",
"#.	c #FDFBFC",
"$.	c #FDFEFF",
"%.	c #FDFDFF",
"&.	c #F9F8FB",
"*.	c #D9D4DB",
"=.	c #B19DA3",
"-.	c #CDAE33",
";.	c #E5C53A",
">.	c #DFBC34",
",.	c #E3BF35",
"'.	c #FADC3E",
").	c #9F8627",
"!.	c #928348",
"~.	c #C3A454",
"{.	c #F1E5B8",
"].	c #AFA4AA",
"^.	c #F5F3F1",
"/.	c #FEFFFD",
"(.	c #FEFFFE",
"_.	c #FDFFFE",
":.	c #F4F5F6",
"<.	c #B9B5BC",
"[.	c #FCF9FD",
"}.	c #FFFEFE",
"|.	c #FFFDFC",
"1.	c #F3EEF3",
"2.	c #9E98A4",
"3.	c #CDBBC5",
"4.	c #D5B736",
"5.	c #E3C030",
"6.	c #E5C331",
"7.	c #E7C938",
"8.	c #9A824A",
"9.	c #D0B06B",
"0.	c #F1E3BD",
"a.	c #A6A3A2",
"b.	c #F5F0F2",
"c.	c #FCFFFE",
"d.	c #FDFEFE",
"e.	c #F0EBED",
"f.	c #BDB7B6",
"g.	c #F7F2E4",
"h.	c #F1EBDC",
"i.	c #F8F4E8",
"j.	c #FDFDFC",
"k.	c #F6F8FB",
"l.	c #B7AAB0",
"m.	c #867325",
"n.	c #D5B02A",
"o.	c #EFCF37",
"p.	c #FCDF3E",
"q.	c #907C40",
"r.	c #F3D779",
"s.	c #D1B182",
"t.	c #F8EFE4",
"u.	c #FFFAFB",
"v.	c #FAFEFE",
"w.	c #FBFCF3",
"x.	c #EBDA9A",
"y.	c #DDC567",
"z.	c #F0D55B",
"A.	c #F8E583",
"B.	c #D8C795",
"C.	c #F1EAD2",
"D.	c #FBF5F3",
"E.	c #69585A",
"F.	c #DFBC36",
"G.	c #F4D439",
"H.	c #A48731",
"I.	c #907B28",
"J.	c #FEE147",
"K.	c #F3D455",
"L.	c #E0C36A",
"M.	c #E5D6AB",
"N.	c #F3E8B6",
"O.	c #F1E5BB",
"P.	c #D9C586",
"Q.	c #F3D847",
"R.	c #FEE44C",
"S.	c #FEE13F",
"T.	c #F4E172",
"U.	c #C9B06C",
"V.	c #C1A795",
"W.	c #DCBE36",
"X.	c #FDE03D",
"Y.	c #FDDF3D",
"Z.	c #FADC45",
"`.	c #6A5930",
" +	c #C3A130",
".+	c #FCDD3D",
"++	c #FCDF3F",
"@+	c #F9DC40",
"#+	c #F7DB40",
"$+	c #FBDE3E",
"%+	c #F9DC3C",
"&+	c #F0D337",
"*+	c #EBCF3C",
"=+	c #D6B93F",
"-+	c #D7B465",
";+	c #EACB3E",
">+	c #DFC349",
",+	c #E6C547",
"'+	c #BE9223",
")+	c #F9DB3C",
"!+	c #FBDE3C",
"~+	c #F3D538",
"{+	c #F7D839",
"]+	c #FDE34C",
"^+	c #796428",
"/+	c #A48646",
"(+	c #FDE044",
"_+	c #CAAC3B",
":+	c #F5D745",
"<+	c #E0BD31",
"[+	c #FEE347",
"}+	c #DAC55A",
"|+	c #D5B63F",
"1+	c #FCE047",
"2+	c #9A812F",
"3+	c #B08A1F",
"4+	c #F1D136",
"5+	c #FEE348",
"6+	c #C9AA4D",
"7+	c #F3D34C",
"8+	c #FDE141",
"9+	c #FEE245",
"0+	c #F4D659",
"a+	c #834D26",
"b+	c #DFC24D",
"c+	c #BFA330",
"d+	c #8D751F",
"e+	c #DEC96B",
"f+	c #DEC548",
"g+	c #FAE464",
"h+	c #E5CA3D",
"i+	c #F8DD45",
"j+	c #F4D73B",
"k+	c #FEE144",
"l+	c #DFC13E",
"m+	c #735C27",
"n+	c #7C612E",
"o+	c #FAD74B",
"p+	c #F9D641",
"q+	c #C8892B",
"r+	c #CF7C28",
"s+	c #F19236",
"t+	c #FA9A39",
"u+	c #995F2A",
"v+	c #DDC05C",
"w+	c #311708",
"x+	c #251203",
"y+	c #463723",
"z+	c #45391A",
"A+	c #978C6C",
"B+	c #746030",
"C+	c #DAC988",
"D+	c #80682D",
"E+	c #E4D4A0",
"F+	c #AE7943",
"G+	c #C97D2E",
"H+	c #E08227",
"I+	c #FA9833",
"J+	c #FA9834",
"K+	c #E38B39",
"L+	c #81552C",
"M+	c #E3BD5E",
"N+	c #6C4231",
"O+	c #7E604F",
"P+	c #2E150B",
"Q+	c #1D0B07",
"R+	c #23140F",
"S+	c #422D20",
"T+	c #CCB07B",
"U+	c #D7742D",
"V+	c #F99633",
"W+	c #E47B28",
"X+	c #B96120",
"Y+	c #E3A054",
"Z+	c #D5995D",
"`+	c #AA8252",
" @	c #936E4D",
".@	c #5A4029",
"+@	c #9F8468",
"@@	c #866D56",
"#@	c #D2AE73",
"$@	c #D1A55E",
"%@	c #F6923D",
"&@	c #FA9935",
"*@	c #E77824",
"=@	c #E07021",
"-@	c #F79432",
";@	c #F49232",
">@	c #E69137",
",@	c #E9A550",
"'@	c #E6B85E",
")@	c #D3B259",
"!@	c #D7BC68",
"~@	c #CEA964",
"{@	c #C29C56",
"]@	c #E5BF5F",
"^@	c #B05B2A",
"/@	c #F79434",
"(@	c #F89532",
"_@	c #EB7E29",
":@	c #CE5412",
"<@	c #F99533",
"[@	c #FA9734",
"}@	c #F79633",
"|@	c #ED9834",
"1@	c #ECA53C",
"2@	c #DCA444",
"3@	c #CC9246",
"4@	c #9F491E",
"5@	c #D86326",
"6@	c #E26B26",
"7@	c #EE7D2D",
"8@	c #F69531",
"9@	c #E68832",
"0@	c #8E4121",
"a@	c #5B2F1B",
"b@	c #AD5A27",
"c@	c #F48B36",
"d@	c #FA9536",
"e@	c #D96B22",
"f@	c #DB7033",
"g@	c #F49349",
"h@	c #F39443",
"i@	c #E98C3D",
"j@	c #B66C30",
"k@	c #D1742F",
"l@	c #F79335",
"m@	c #D76321",
"n@	c #F99643",
"o@	c #FA993B",
"p@	c #FA9835",
"q@	c #F99737",
"r@	c #E88A35",
"s@	c #DE7A3C",
"t@	c #F99336",
"u@	c #F99532",
"v@	c #DA611F",
"w@	c #FA983B",
"x@	c #FA9939",
"y@	c #FA9A37",
"z@	c #F8923E",
"A@	c #E48637",
"B@	c #C66520",
"C@	c #A75829",
"D@	c #80492A",
"E@	c #B6673C",
"F@	c #B96B40",
"G@	c #B46A40",
"H@	c #C07137",
"I@	c #CF7A37",
"J@	c #DC8132",
"K@	c #EF9135",
"L@	c #F79735",
"M@	c #DF6820",
"N@	c #F89838",
"O@	c #F89937",
"P@	c #E78A32",
"Q@	c #E49B2C",
"R@	c #F5CD3A",
"S@	c #EDC53A",
"T@	c #684A1C",
"U@	c #403348",
"V@	c #696084",
"W@	c #636C98",
"X@	c #636F9C",
"Y@	c #646D96",
"Z@	c #6E6C8D",
"`@	c #726678",
" #	c #7E5F5F",
".#	c #945D45",
"+#	c #C47741",
"@#	c #EA8F37",
"##	c #F89835",
"$#	c #FA9733",
"%#	c #D8681D",
"&#	c #F49339",
"*#	c #DC8530",
"=#	c #D99D28",
"-#	c #FDDE3E",
";#	c #EFD13E",
">#	c #56649E",
",#	c #498DD7",
"'#	c #2D95E0",
")#	c #2D94E1",
"!#	c #2D93E1",
"~#	c #2F97E0",
"{#	c #3097DF",
"]#	c #4096DA",
"^#	c #608BC6",
"/#	c #797BA0",
"(#	c #786565",
"_#	c #A57551",
":#	c #DA893E",
"<#	c #F79736",
"[#	c #E07527",
"}#	c #E47F2E",
"|#	c #B55F1C",
"1#	c #D59F2B",
"2#	c #EFD03E",
"3#	c #131C40",
"4#	c #3070B9",
"5#	c #2898E1",
"6#	c #2798E1",
"7#	c #3597DE",
"8#	c #3F97DA",
"9#	c #5C8CBC",
"0#	c #777283",
"a#	c #926756",
"b#	c #D5843F",
"c#	c #F59334",
"d#	c #C76622",
"e#	c #D87F2F",
"f#	c #914E17",
"g#	c #CEA930",
"h#	c #D4B73C",
"i#	c #32395E",
"j#	c #4583CB",
"k#	c #2897E1",
"l#	c #419ADC",
"m#	c #6992C3",
"n#	c #7A7388",
"o#	c #A06D48",
"p#	c #DE893C",
"q#	c #E38C3E",
"r#	c #B36A30",
"s#	c #522F0C",
"t#	c #ECCC39",
"u#	c #897526",
"v#	c #7C6B5B",
"w#	c #49568D",
"x#	c #3C95E0",
"y#	c #2899E2",
"z#	c #2B97E0",
"A#	c #459CDF",
"B#	c #678AB3",
"C#	c #6B595C",
"D#	c #D99D60",
"E#	c #784E28",
"F#	c #624C15",
"G#	c #F4D73C",
"H#	c #F4D63F",
"I#	c #A68628",
"J#	c #F2D442",
"K#	c #E1CB71",
"L#	c #535779",
"M#	c #519FE6",
"N#	c #2794E2",
"O#	c #2591DF",
"P#	c #2696E0",
"Q#	c #349BE3",
"R#	c #6190C5",
"S#	c #59595E",
"T#	c #8C6D21",
"U#	c #C9AB37",
"V#	c #C8AA34",
"W#	c #FEE03E",
"X#	c #F7DE54",
"Y#	c #606458",
"Z#	c #62A0DB",
"`#	c #2691E0",
" $	c #1B77D5",
".$	c #1E7FDF",
"+$	c #197BD6",
"@$	c #2491DF",
"#$	c #2999E2",
"$$	c #51A5E8",
"%$	c #31496C",
"&$	c #CEAC31",
"*$	c #BC983A",
"=$	c #C8AC32",
"-$	c #FDE246",
";$	c #898754",
">$	c #658EBF",
",$	c #369DE6",
"'$	c #2795E1",
")$	c #2793E1",
"!$	c #2C9AE3",
"~$	c #4C92DC",
"{$	c #1A244C",
"]$	c #9F8429",
"^$	c #ECCF37",
"/$	c #F6DA3C",
"($	c #C49F36",
"_$	c #927431",
":$	c #AD942C",
"<$	c #FEE140",
"[$	c #B0A44E",
"}$	c #506C94",
"|$	c #47A1E9",
"1$	c #2A99E2",
"2$	c #2488D9",
"3$	c #2A97E1",
"4$	c #319CE5",
"5$	c #4F84CC",
"6$	c #050A25",
"7$	c #64531F",
"8$	c #E8CC3B",
"9$	c #C9B42F",
"0$	c #D8C034",
"a$	c #EACE37",
"b$	c #DBC135",
"c$	c #DCBE39",
"d$	c #503A19",
"e$	c #967F8E",
"f$	c #5E608D",
"g$	c #467FC2",
"h$	c #378CD2",
"i$	c #368CD0",
"j$	c #387FBC",
"k$	c #314B6C",
"l$	c #777972",
"m$	c #7E6E2F",
"n$	c #C5AD35",
"o$	c #212B47",
"p$	c #5B92D8",
"q$	c #309AE3",
"r$	c #3E98E2",
"s$	c #104078",
"t$	c #184B8C",
"u$	c #348BD5",
"v$	c #2D8CDA",
"w$	c #267DD0",
"x$	c #2D98E2",
"y$	c #2795DE",
"z$	c #2A90D7",
"A$	c #3292D5",
"B$	c #2B8CCF",
"C$	c #2B8DD1",
"D$	c #3994D8",
"E$	c #3897DE",
"F$	c #6899DA",
"G$	c #112137",
"H$	c #867736",
"I$	c #786C22",
"J$	c #827424",
"K$	c #E6CD41",
"L$	c #B09E40",
"M$	c #B49EAE",
"N$	c #A09FCA",
"O$	c #3472BE",
"P$	c #359DE6",
"Q$	c #447BB1",
"R$	c #D3E6E3",
"S$	c #B2AA61",
"T$	c #FBDF3E",
"U$	c #B9A233",
"V$	c #3E4D75",
"W$	c #4E74A8",
"X$	c #172D4F",
"Y$	c #163262",
"Z$	c #2562A9",
"`$	c #306FAE",
" %	c #296184",
".%	c #8A9D76",
"+%	c #9BA667",
"@%	c #A8AD69",
"#%	c #ACAE71",
"$%	c #7B876E",
"%%	c #2B4A70",
"&%	c #4A739F",
"*%	c #D0C3DB",
"=%	c #6C7ABE",
"-%	c #2A83CF",
";%	c #2998E2",
">%	c #2B99E2",
",%	c #337EBF",
"'%	c #B1CBDC",
")%	c #C6C3A1",
"!%	c #E4CA40",
"~%	c #A5912A",
"{%	c #395C87",
"]%	c #7BA5C7",
"^%	c #577767",
"/%	c #EBD548",
"(%	c #F0D642",
"_%	c #6E715E",
":%	c #4A5C64",
"<%	c #CCC2DB",
"[%	c #5565A5",
"}%	c #2D83D0",
"|%	c #2C91D9",
"1%	c #6A91BC",
"2%	c #E3E7E6",
"3%	c #CBB867",
"4%	c #ECD140",
"5%	c #AF9A31",
"6%	c #4A5862",
"7%	c #616A4D",
"8%	c #E6CE40",
"9%	c #F7DB3D",
"0%	c #5E5723",
"a%	c #CABED8",
"b%	c #6877B3",
"c%	c #3B7DC7",
"d%	c #3B88D1",
"e%	c #607EB0",
"f%	c #717CA0",
"g%	c #DDDEDD",
"h%	c #EDE6A9",
"i%	c #5D5637",
"j%	c #DAC239",
"k%	c #FADD3E",
"l%	c #BBADC7",
"m%	c #AAAAD7",
"n%	c #505791",
"o%	c #9FACD4",
"p%	c #53649E",
"q%	c #7187B9",
"r%	c #8A9FC1",
"s%	c #323947",
"t%	c #D7C036",
"u%	c #FADE3E",
"v%	c #9D879D",
"w%	c #D9CBE3",
"x%	c #9E9EC1",
"y%	c #707BB3",
"z%	c #6173B1",
"A%	c #687BB1",
"B%	c #D1BB38",
"C%	c #F8DC3E",
"D%	c #847085",
"E%	c #C8B8D0",
"F%	c #D6D0E5",
"G%	c #CECDE7",
"H%	c #7B7C9C",
"I%	c #D3BD39",
"J%	c #EDD23B",
"K%	c #5A545E",
"L%	c #868286",
"M%	c #5C585D",
"N%	c #D5BF37",
"O%	c #E7CC39",
"P%	c #DFC739",
"Q%	c #E0C93B",
"R%	c #4C4727",
"S%	c #EBD141",
"T%	c #D2BD39",
"U%	c #9A956B",
"V%	c #E5D160",
"W%	c #F9DD3E",
"X%	c #BBA93D",
"Y%	c #506B83",
"Z%	c #94A8B2",
"`%	c #EFEFE5",
" &	c #E2D99E",
".&	c #E5D570",
"+&	c #DECF71",
"@&	c #CFC89A",
"#&	c #626256",
"$&	c #263A4D",
"%&	c #338ECE",
"&&	c #3096DA",
"*&	c #64A5D4",
"=&	c #B8D1E1",
"-&	c #D4E0E6",
";&	c #D5DFE5",
">&	c #8C9A9F",
",&	c #30608E",
"'&	c #2798E0",
")&	c #2D94DA",
"!&	c #318ECF",
"~&	c #3993D0",
"{&	c #417A9F",
"]&	c #2C72B4",
"^&	c #2B9AE2",
"/&	c #3087C4",
"(&	c #515B6E",
"_&	c #658BBF",
":&	c #2C9BE3",
"<&	c #297EBA",
"[&	c #4E535C",
"}&	c #CBDDE9",
"|&	c #4E7FAF",
"1&	c #2C8ED8",
"2&	c #1D6CA2",
"3&	c #808990",
"4&	c #D5ECF4",
"5&	c #5E87B6",
"6&	c #2E89CC",
"7&	c #2996DF",
"8&	c #2C99E2",
"9&	c #318FD6",
"0&	c #4374A6",
"a&	c #E3EDF3",
"b&	c #C7DDEF",
"c&	c #8DB1D8",
"d&	c #79A3CF",
"e&	c #9FC0DF",
"f&	c #7A94AB",
"g&	c #A0A3A3",
"h&	c #E5ECF0",
"i&	c #ECF6F7",
"j&	c #9BA5A7",
"                                                                  .   +     @               ",
"                                                        #   $ % & * = - ; > , ' )           ",
"                                                    !   ~ { ] ^ ^ ^ ^ ^ ^ ^ ^ / (           ",
"                                                _   : < [ ^ ^ ^ ^ ^ ^ ^ ^ ^ ^ } |           ",
"                                                1 2 [ ^ ^ ^ ^ ^ ^ ^ ^ ^ ^ ^ ^ 3 4           ",
"                                                5 6 ^ ^ ^ ^ ^ ^ ^ ^ ^ ^ ^ ^ ^ 7             ",
"                                                  8 ^ ^ ^ ^ ^ ^ ^ ^ ^ ^ ^ ^ ^ 9             ",
"                                                  0 ^ ^ ^ ^ ^ ^ ^ ^ ^ ^ ^ ^ ^ a             ",
"                                                    b ^ ^ ^ ^ ^ ^ ^ ^ ^ ^ ^ ^ c d           ",
"                                                    e ^ ^ ^ f g ^ ^ ^ ^ ^ ^ ^ h i           ",
"                            j                       k ^ l m n o p q r s t u v w x           ",
"                        y   z A                     B C D E F G H I J K L M N O P Q         ",
"                        R S T U                     V W X Y Z `  ...+.@.#.$.%.&.*.=.        ",
"                      -.;.>.,.'.).                  !.~.{.].^./.(._.:.<.[.}.|.1.2.3.        ",
"                        4.5.6.^ 7.                  8.9.0.a.b. .c.d.e.f.g.h.i.j.k.l.        ",
"                        m.n.o.^ p.                  q.r.s.t.u.(.v.w.x.y.z.A.B.C.D.E.        ",
"                          F.G.^ [ H.                I.J.K.L.M.N.O.P.Q.R.S.R.T.U.V.          ",
"                            W.X.Y.Z.`.               +.+S.++@+#+{ $+^ ^ %+&+*+=+-+          ",
"                              ;+^ ^ >+            ,+'+)+^ ^ ^ ^ ^ ^ ^ ^ !+~+{+]+^+          ",
"                              /+(+^ S._+          :+<+)+^ ^ ^ ^ ^ ^ ^ ^ ^ ^ ^ [+}+          ",
"                                |+S.S.1+2+          3+4+^ ^ ^ ^ ^ ^ ^ ^ ^ ^ ^ ^ 5+6+        ",
"                                  7+8+9+0+    a+    b+c+d+e+f+g+h+i+j+k+%+[ ^ p.l+m+        ",
"                                  n+o+p+q+r+s+t+u+  v+w+x+y+z+A+B+C+D+E+                    ",
"                                    F+G+H+I+I+J+K+L+M+N+O+P+Q+R+S+T+                        ",
"                                      U+I+I+I+V+W+X+Y+Z+`+ @.@+@@@#@$@                      ",
"                                      %@I+I+&@*@=@-@;@>@,@'@)@!@~@{@]@                      ",
"                                      ^@/@(@_@:@<@I+[@I+}@|@1@2@3@                          ",
"                                        4@5@6@7@I+I+I+I+I+I+I+8@9@0@a@                      ",
"                                        b@c@d@[@I+I+I+I+I+I+I+I+e@f@g@h@i@j@                ",
"                                      k@l@I+I+I+I+I+I+I+I+I+I+V+m@n@o@I+p@q@r@              ",
"                                    s@t@[@I+I+I+I+I+I+I+I+I+I+u@v@w@x@y@z@A@B@C@            ",
"                                  D@E@F@G@H@I@J@K@L@I+I+I+I+I+V+M@N@O@P@Q@R@S@T@            ",
"                                  U@V@W@X@Y@Z@`@ #.#+#@###I+J+$#%#&#*#=#-#^ ^ ;#            ",
"                                  >#,#'#)#!#~#{#]#^#/#(#_#:#<#I+[#}#|#1#[ ^ ^ ^ 2#          ",
"                                3#4#5#6#6#6#6#6#6#5#7#8#9#0#a#b#c#d#e#f#g#^ ^ ^ ^ h#        ",
"                              i#j#k#6#6#6#6#6#6#6#6#6#6#6#l#m#n#o#p#q#r#s#t#^ ^ ^ ^ u#      ",
"                            v#w#x#6#6#6#6#6#6#6#6#6#6#6#6#y#z#A#B#C#D#E#  F#G#^ ^ ^ H#      ",
"                        I#J#K#L#M#6#6#6#6#6#6#6#6#6#k#N#O#P#6#6#Q#R#S#      T#$+^ ^ ^ U#    ",
"                      V#W#^ X#Y#Z#6#6#6#6#6#6#6#6#`# $.$+$@$6#6##$$$%$        &$^ ^ ^ [ *$  ",
"                    =$^ ^ ^ -$;$>$,$6#6#6#6#6#6#6#'$)$6#6#6#6#6#!$~${$        ]$^ ^ ^$/$($_$",
"                  :$^ ^ ^ ^ <$[$}$|$6#1$2$3$#$6#6#6#6#6#6#6#6#6#4$5$6$      7$8$9$0$a$b$c$d$",
"e$f$g$h$i$j$k$l$m$$+^ ^ ^ [ n$  o$p$q$r$s$t$u$v$w$x$y$z$A$B$C$D$E$F$G$      H$I$    J$K$L$  ",
"M$N$O$6#6#P$Q$R$S$T$^ ^ b U$      V$W$X$      Y$Z$`$ %.%+%@%#%$%%%&%                        ",
"  *%=%-%;%>%,%'%)%!%^ $+~%                      {%]%^%/%^ ^ ^ (%_%:%                        ",
"    <%[%}%5#|%1%2%3%4%5%                          6%7%8%^ ^ ^ 9%0%                          ",
"      a%b%c%d%e%f%g%h%i%                              j%^ ^ ^ k%                            ",
"        l%m%n%o%p%q%r%s%                              t%^ ^ ^ u%                            ",
"          v%w%x%y%z%A%                                B%^ ^ ^ C%                            ",
"            D%E%F%G%H%                                I%^ ^ ^ J%                            ",
"                K%L%M%                                N%^ ^ ^ O%                            ",
"                                                      P%^ ^ ^ Q%                            ",
"                                                    R%S%^ ^ ^ T%                            ",
"                                                    U%V%W%^ ^ X%                            ",
"                                                  Y%Z%`% &.&+&@&#&                          ",
"                                                $&%&&&*&=&-&;&>&                            ",
"                                                ,&'&5#5#)&!&~&{&                            ",
"                                                ]&6#6#6#6#6#^&/&                            ",
"                                              (&_&z$6#6#6#6#:&<&                            ",
"                                              [&}&|&1&6#6#6#6#2&                            ",
"                                                3&4&5&6&7&8&9&0&                            ",
"                                                    a&b&c&d&e&f&                            ",
"                                                      g&h&i&j&                              "};
